<?xml version="1.0" standalone="no"?>
<!DOCTYPE svg PUBLIC "-//W3C//DTD SVG 20010904//EN"
 "http://www.w3.org/TR/2001/REC-SVG-20010904/DTD/svg10.dtd">
<svg version="1.0" xmlns="http://www.w3.org/2000/svg"
 width="1125.000000pt" height="417.000000pt" viewBox="0 0 1125.000000 417.000000"
 preserveAspectRatio="xMidYMid meet">
<metadata>
Created by potrace 1.15, written by Peter Selinger 2001-2017
</metadata>
<g transform="translate(0.000000,417.000000) scale(0.100000,-0.100000)"
fill="#000000" stroke="none">
<path d="M2490 3294 c-571 -73 -1004 -484 -1096 -1042 -21 -124 -14 -349 15
-472 89 -390 360 -713 729 -870 85 -36 134 -41 162 -15 18 16 20 31 20 153 0
118 -2 133 -16 128 -9 -3 -46 -9 -82 -12 -115 -11 -238 34 -288 104 -11 15
-34 57 -52 94 -25 50 -50 83 -98 125 -35 31 -64 60 -64 64 0 16 44 21 85 9 47
-13 103 -54 136 -102 l22 -30 -22 7 c-26 8 -39 -18 -21 -40 18 -21 38 -18 42
6 3 19 5 19 26 -10 15 -21 17 -29 7 -25 -22 9 -31 -24 -12 -43 20 -20 51 -9
44 16 -4 17 -2 16 34 -3 34 -19 36 -22 17 -26 -30 -8 -33 -26 -8 -40 25 -13
52 3 43 26 -4 11 8 14 63 15 38 0 85 5 104 12 30 10 37 19 52 66 10 29 29 69
43 87 30 39 32 36 -68 53 -304 51 -467 251 -467 573 0 131 30 226 97 315 23
30 24 34 12 93 -13 67 -8 163 13 225 13 40 14 40 60 38 56 -3 128 -31 219 -84
l69 -40 82 18 c115 24 342 24 460 -1 87 -18 87 -18 117 3 75 53 277 129 295
110 3 -3 12 -31 21 -64 18 -69 19 -158 4 -219 -10 -41 -9 -45 30 -101 60 -86
83 -167 82 -295 -1 -330 -162 -522 -480 -572 -44 -7 -81 -15 -81 -19 0 -3 9
-14 20 -24 11 -10 29 -42 40 -72 18 -48 20 -77 20 -269 0 -133 4 -223 11 -235
28 -53 105 -39 271 48 340 179 578 507 643 887 19 112 19 304 0 422 -81 501
-472 904 -980 1009 -78 16 -306 28 -375 19z"/>
<path d="M4779 2851 c-262 -37 -413 -177 -487 -450 -24 -89 -26 -112 -26 -311
-1 -248 9 -309 76 -450 93 -195 263 -292 538 -306 173 -9 370 32 461 97 l29
21 -2 376 -3 377 -254 3 c-197 2 -256 -1 -263 -10 -13 -21 -10 -252 4 -266 8
-8 46 -12 105 -12 l93 0 0 -134 c0 -80 -4 -137 -10 -141 -20 -13 -195 -10
-243 4 -26 8 -67 31 -91 52 -77 68 -113 169 -122 344 -14 266 68 442 228 490
77 23 245 20 347 -6 46 -12 87 -17 91 -12 8 8 60 227 60 251 0 19 -78 51 -164
67 -92 18 -292 26 -367 16z"/>
<path d="M6735 2788 c-3 -7 -4 -330 -3 -718 l3 -705 155 0 155 0 3 308 2 307
200 0 200 0 0 -294 c0 -162 3 -301 6 -310 5 -14 29 -16 160 -16 l154 0 0 720
0 720 -154 0 c-131 0 -155 -2 -160 -16 -3 -9 -6 -128 -6 -265 l0 -249 -200 0
-200 0 0 265 0 265 -155 0 c-115 0 -157 -3 -160 -12z"/>
<path d="M8935 2788 c-3 -7 -4 -330 -3 -718 l3 -705 95 -3 c125 -4 140 0 140
38 l0 30 39 -25 c76 -47 157 -68 271 -69 127 -1 188 17 254 75 87 77 125 194
133 414 9 243 -29 380 -129 470 -66 59 -129 79 -248 79 -89 -1 -137 -12 -222
-48 -16 -7 -18 9 -20 231 l-3 238 -153 3 c-116 2 -154 0 -157 -10z m555 -703
c34 -31 50 -69 60 -148 11 -88 -2 -232 -25 -276 -8 -17 -27 -38 -41 -48 -36
-23 -139 -21 -198 6 l-46 20 0 214 0 214 38 16 c61 26 65 27 129 24 45 -2 68
-8 83 -22z"/>
<path d="M5586 2748 c-50 -30 -76 -65 -86 -118 -24 -132 83 -236 215 -208 111
24 165 152 109 260 -41 79 -160 112 -238 66z"/>
<path d="M6087 2624 c-4 -4 -7 -69 -7 -145 l0 -138 -40 -11 c-22 -5 -58 -15
-80 -20 l-40 -11 0 -109 0 -110 80 0 80 0 0 -248 c0 -286 6 -322 70 -395 51
-57 105 -83 200 -97 87 -13 231 3 255 27 11 11 15 39 15 108 0 51 -3 100 -6
109 -5 13 -22 16 -85 16 -68 0 -81 3 -106 24 l-28 24 -3 216 -3 215 108 3 108
3 0 130 0 130 -107 3 -107 3 -3 137 -3 137 -146 3 c-80 1 -148 -1 -152 -4z"/>
<path d="M5515 2338 c-3 -7 -4 -229 -3 -493 l3 -480 152 -3 c151 -2 153 -2
158 20 3 13 4 234 3 493 l-3 470 -153 3 c-116 2 -154 0 -157 -10z"/>
<path d="M7901 2336 c-10 -11 -12 -104 -9 -388 5 -433 7 -448 86 -527 67 -66
132 -86 282 -85 100 0 124 4 190 29 41 15 85 34 97 42 24 16 22 18 38 -32 3
-12 25 -15 110 -15 l105 0 -2 493 -3 492 -150 0 -150 0 -3 -351 -2 -352 -33
-15 c-95 -45 -191 -41 -225 10 -15 24 -18 66 -22 368 l-5 340 -146 3 c-119 2
-148 0 -158 -12z"/>
</g>
</svg>
